<svg width="360" height="360" viewBox="0 0 360 360" fill="none" xmlns="http://www.w3.org/2000/svg">
<path d="M139.11 77.3279C181.792 120.035 185.48 185.587 185.48 185.587C185.48 185.587 119.966 181.897 77.2832 139.19C34.6009 96.4832 30.9133 30.9311 30.9133 30.9311C30.9133 30.9311 96.4275 34.6208 139.11 77.3279Z" fill="#A6CC52"/>
<path d="M220.89 77.3279C178.208 120.035 174.52 185.587 174.52 185.587C174.52 185.587 240.034 181.897 282.717 139.19C325.399 96.4832 329.087 30.9311 329.087 30.9311C329.087 30.9311 263.573 34.6208 220.89 77.3279Z" fill="#A6CC52"/>
<path d="M139.11 282.672C181.792 239.965 185.48 174.413 185.48 174.413C185.48 174.413 119.966 178.103 77.2832 220.81C34.6009 263.517 30.9133 329.069 30.9133 329.069C30.9133 329.069 96.4275 325.379 139.11 282.672Z" fill="#A6CC52"/>
<path d="M220.89 282.672C178.208 239.965 174.52 174.413 174.52 174.413C174.52 174.413 240.034 178.103 282.717 220.81C325.399 263.517 329.087 329.069 329.087 329.069C329.087 329.069 263.573 325.379 220.89 282.672Z" fill="#A6CC52"/>
</svg>
