<svg width="97" height="25" viewBox="0 0 97 25" fill="none" xmlns="http://www.w3.org/2000/svg">
<path d="M17.5199 24.5578V0.664444H22.031V24.5578H17.5199ZM7.87545 0.944444C10.0947 0.944444 11.8369 1.88815 13.1021 3.77555C14.3673 5.66296 14.9999 8.51481 14.9999 12.3311C14.9999 16.1474 14.3673 18.9993 13.1021 20.8867C11.8369 22.7741 10.0947 23.7178 7.87545 23.7178C5.63545 23.7178 3.88286 22.7741 2.61767 20.8867C1.35249 18.9993 0.719896 16.1474 0.719896 12.3311C0.719896 8.51481 1.35249 5.66296 2.61767 3.77555C3.88286 1.88815 5.63545 0.944444 7.87545 0.944444ZM7.87545 5.26889C6.07101 5.26889 5.16879 7.62296 5.16879 12.3311C5.16879 17.0393 6.07101 19.3933 7.87545 19.3933C9.6799 19.3933 10.5821 17.0393 10.5821 12.3311C10.5821 9.82148 10.3332 8.01704 9.83545 6.91778C9.35841 5.81852 8.70508 5.26889 7.87545 5.26889ZM24.5788 6.76222V2.71778H29.8988V0.477777H34.5033V2.71778H39.8855V6.76222H24.5788ZM46.0766 13.7622V24.5578H41.5966V0.664444H46.0766V9.15778H48.6899V13.7622H46.0766ZM34.4411 19.2689C35.5611 19.2689 36.6396 19.1963 37.6766 19.0511C38.7344 18.8852 39.6055 18.6467 40.2899 18.3356V22.5044C39.6055 22.8156 38.7344 23.0541 37.6766 23.22C36.6188 23.3652 35.4988 23.4378 34.3166 23.4378H24.6722V19.2689H29.9299V17.2467C28.5403 16.9563 27.4307 16.4067 26.6011 15.5978C25.7922 14.7681 25.3877 13.7311 25.3877 12.4867C25.3877 10.8896 26.0203 9.65556 27.2855 8.78444C28.5507 7.91333 30.2099 7.47778 32.2633 7.47778C34.2959 7.47778 35.9448 7.91333 37.2099 8.78444C38.4751 9.65556 39.1077 10.8896 39.1077 12.4867C39.1077 13.7519 38.6825 14.7993 37.8322 15.6289C37.0025 16.4378 35.8722 16.977 34.4411 17.2467V19.2689ZM29.5877 12.4867C29.5877 12.9015 29.8262 13.2126 30.3033 13.42C30.7803 13.6274 31.4337 13.7311 32.2633 13.7311C33.0722 13.7311 33.7151 13.6274 34.1922 13.42C34.6692 13.2126 34.9077 12.9015 34.9077 12.4867C34.9077 12.0719 34.6692 11.7607 34.1922 11.5533C33.7151 11.3252 33.0722 11.2111 32.2633 11.2111C31.4337 11.2111 30.7803 11.3252 30.3033 11.5533C29.8262 11.7607 29.5877 12.0719 29.5877 12.4867ZM73.3267 9.74889H70.6511V18.3667H66.1711V0.664444H70.6511V5.17556H73.3267V9.74889ZM57.2422 10.1533C56.2674 11.6259 55.0956 12.7978 53.7267 13.6689C52.3785 14.54 50.9059 15.017 49.3089 15.1V10.7133C50.4911 10.5681 51.5281 10.0393 52.42 9.12667C53.3326 8.21407 54.0378 7.03185 54.5356 5.58C55.0541 4.12815 55.3237 2.52074 55.3444 0.757777L59.8556 1.03778C59.8556 2.98741 59.5859 4.77111 59.0467 6.38889L65.4867 11.46L62.8111 14.7578L57.2422 10.1533ZM70.9933 20.3267V24.5578H50.5844V16.1889H55.1578V20.3267H70.9933ZM96.0345 13.0467H91.5545V9.00222H88.0701C87.6138 10.2467 86.7738 11.2319 85.5501 11.9578C84.3471 12.663 82.8849 13.0156 81.1634 13.0156C79.7323 13.0156 78.4567 12.7667 77.3367 12.2689C76.2375 11.7504 75.3767 11.0244 74.7545 10.0911C74.153 9.15778 73.8523 8.07926 73.8523 6.85556C73.8523 5.63185 74.153 4.55333 74.7545 3.62C75.3767 2.68667 76.2375 1.97111 77.3367 1.47333C78.4567 0.954814 79.7323 0.695554 81.1634 0.695554C82.8641 0.695554 84.316 1.03778 85.5189 1.72222C86.7219 2.40667 87.5619 3.36074 88.0389 4.58444H91.5545V0.664444H96.0345V13.0467ZM81.1634 9.18889C82.0345 9.18889 82.7189 8.98148 83.2167 8.56667C83.7145 8.15185 83.9634 7.58148 83.9634 6.85556C83.9634 6.12963 83.7145 5.55926 83.2167 5.14444C82.7189 4.70889 82.0345 4.49111 81.1634 4.49111C80.313 4.49111 79.6286 4.70889 79.1101 5.14444C78.6123 5.55926 78.3634 6.12963 78.3634 6.85556C78.3634 7.56074 78.6123 8.13111 79.1101 8.56667C79.6286 8.98148 80.313 9.18889 81.1634 9.18889ZM96.0345 13.8867V24.5578H75.9989V13.8867H80.3856V15.4422H91.6167V13.8867H96.0345ZM91.6167 19.1133H80.3856V20.8244H91.6167V19.1133Z" fill="white"/>
</svg>
